<?xml version="1.0" encoding="utf-8" ?>
<svg baseProfile="tiny" height="1024" version="1.2" width="1024" xmlns="http://www.w3.org/2000/svg" xmlns:ev="http://www.w3.org/2001/xml-events" xmlns:xlink="http://www.w3.org/1999/xlink"><defs /><path d="M 673,167 L 672,168 L 667,168 L 666,169 L 662,169 L 661,170 L 659,170 L 658,171 L 656,171 L 655,172 L 654,172 L 653,173 L 651,173 L 650,174 L 649,174 L 648,175 L 647,175 L 645,177 L 644,177 L 643,178 L 642,178 L 640,180 L 639,180 L 636,183 L 635,183 L 625,193 L 625,194 L 622,197 L 622,198 L 620,200 L 620,201 L 618,203 L 618,204 L 616,206 L 616,207 L 615,208 L 615,209 L 614,210 L 614,211 L 613,212 L 613,213 L 612,214 L 612,215 L 611,216 L 611,217 L 609,219 L 609,220 L 604,225 L 603,225 L 601,227 L 600,227 L 598,229 L 597,229 L 596,230 L 595,230 L 593,232 L 592,232 L 591,233 L 590,233 L 588,235 L 587,235 L 586,236 L 585,236 L 584,237 L 583,237 L 581,239 L 580,239 L 579,240 L 578,240 L 577,241 L 576,241 L 574,243 L 573,243 L 572,244 L 571,244 L 570,245 L 569,245 L 567,247 L 566,247 L 565,248 L 564,248 L 563,249 L 562,249 L 560,251 L 559,251 L 558,252 L 557,252 L 556,253 L 555,253 L 554,254 L 553,254 L 551,256 L 550,256 L 549,257 L 548,257 L 547,258 L 546,258 L 545,259 L 544,259 L 543,260 L 542,260 L 541,261 L 540,261 L 539,262 L 538,262 L 536,264 L 535,264 L 534,265 L 533,265 L 532,266 L 531,266 L 530,267 L 529,267 L 528,268 L 526,268 L 525,269 L 524,269 L 523,270 L 522,270 L 521,271 L 520,271 L 519,272 L 518,272 L 517,273 L 516,273 L 515,274 L 514,274 L 513,275 L 512,275 L 511,276 L 509,276 L 508,277 L 507,277 L 506,278 L 505,278 L 504,279 L 502,279 L 501,280 L 500,280 L 499,281 L 497,281 L 496,282 L 495,282 L 494,283 L 493,283 L 492,284 L 490,284 L 489,285 L 488,285 L 487,286 L 485,286 L 484,287 L 482,287 L 481,288 L 480,288 L 479,289 L 477,289 L 476,290 L 474,290 L 473,291 L 471,291 L 470,292 L 468,292 L 467,293 L 466,293 L 465,294 L 463,294 L 462,295 L 460,295 L 459,296 L 457,296 L 456,297 L 454,297 L 453,298 L 450,298 L 449,299 L 447,299 L 446,300 L 444,300 L 443,301 L 441,301 L 440,302 L 437,302 L 436,303 L 434,303 L 433,304 L 430,304 L 429,305 L 427,305 L 426,306 L 423,306 L 422,307 L 420,307 L 419,308 L 416,308 L 415,309 L 412,309 L 411,310 L 409,310 L 408,311 L 405,311 L 404,312 L 401,312 L 400,313 L 397,313 L 396,314 L 394,314 L 393,315 L 390,315 L 389,316 L 387,316 L 386,317 L 383,317 L 382,318 L 380,318 L 379,319 L 377,319 L 376,320 L 374,320 L 373,321 L 371,321 L 370,322 L 368,322 L 367,323 L 365,323 L 364,324 L 362,324 L 361,325 L 360,325 L 359,326 L 357,326 L 356,327 L 354,327 L 353,328 L 352,328 L 351,329 L 349,329 L 348,330 L 347,330 L 346,331 L 345,331 L 344,332 L 342,332 L 341,333 L 340,333 L 339,334 L 338,334 L 337,335 L 336,335 L 335,336 L 334,336 L 333,337 L 332,337 L 331,338 L 330,338 L 329,339 L 328,339 L 327,340 L 326,340 L 325,341 L 324,341 L 323,342 L 322,342 L 321,343 L 320,343 L 319,344 L 318,344 L 317,345 L 316,345 L 315,346 L 314,346 L 313,347 L 312,347 L 310,349 L 309,349 L 308,350 L 307,350 L 305,352 L 304,352 L 302,354 L 301,354 L 299,356 L 298,356 L 296,358 L 295,358 L 293,360 L 292,360 L 290,362 L 289,362 L 286,365 L 285,365 L 282,368 L 281,368 L 277,372 L 276,372 L 272,376 L 271,376 L 266,381 L 265,381 L 258,388 L 257,388 L 231,414 L 231,415 L 227,419 L 227,420 L 224,423 L 224,424 L 221,427 L 221,428 L 218,431 L 218,432 L 215,435 L 215,436 L 213,438 L 213,439 L 210,442 L 210,443 L 208,445 L 208,446 L 205,449 L 205,450 L 203,452 L 203,453 L 201,455 L 201,456 L 198,459 L 198,460 L 196,462 L 196,463 L 194,465 L 194,466 L 191,469 L 191,470 L 189,472 L 189,473 L 187,475 L 187,476 L 185,478 L 185,479 L 183,481 L 183,482 L 181,484 L 181,485 L 178,488 L 178,489 L 176,491 L 176,492 L 174,494 L 174,495 L 172,497 L 172,498 L 170,500 L 170,501 L 168,503 L 168,504 L 166,506 L 166,507 L 164,509 L 164,510 L 162,512 L 162,513 L 161,514 L 161,515 L 159,517 L 159,518 L 158,519 L 158,520 L 156,522 L 156,523 L 155,524 L 155,525 L 154,526 L 154,527 L 153,528 L 153,529 L 151,531 L 151,532 L 150,533 L 150,534 L 149,535 L 149,536 L 146,539 L 146,540 L 144,542 L 144,543 L 143,544 L 143,545 L 142,546 L 142,547 L 141,548 L 141,549 L 137,553 L 136,553 L 135,554 L 134,554 L 133,555 L 132,555 L 130,557 L 129,557 L 127,559 L 126,559 L 123,562 L 122,562 L 109,575 L 109,576 L 106,579 L 106,580 L 104,582 L 104,583 L 103,584 L 103,585 L 102,586 L 102,587 L 101,588 L 101,589 L 100,590 L 100,591 L 99,592 L 99,594 L 98,595 L 98,597 L 97,598 L 97,601 L 96,602 L 96,608 L 95,609 L 95,616 L 96,617 L 96,623 L 97,624 L 97,627 L 98,628 L 98,630 L 99,631 L 99,633 L 100,634 L 100,635 L 101,636 L 101,638 L 102,639 L 102,640 L 103,641 L 103,642 L 104,643 L 104,644 L 105,645 L 105,646 L 107,648 L 107,649 L 108,650 L 108,651 L 110,653 L 110,654 L 113,657 L 113,658 L 115,660 L 115,661 L 120,666 L 120,667 L 141,688 L 142,688 L 147,693 L 148,693 L 152,697 L 153,697 L 156,700 L 157,700 L 160,703 L 161,703 L 163,705 L 164,705 L 167,708 L 168,708 L 170,710 L 171,710 L 172,711 L 173,711 L 175,713 L 176,713 L 178,715 L 179,715 L 180,716 L 181,716 L 183,718 L 184,718 L 185,719 L 186,719 L 188,721 L 189,721 L 190,722 L 191,722 L 192,723 L 193,723 L 194,724 L 195,724 L 197,726 L 198,726 L 199,727 L 200,727 L 201,728 L 202,728 L 203,729 L 204,729 L 205,730 L 206,730 L 207,731 L 208,731 L 209,732 L 210,732 L 211,733 L 212,733 L 213,734 L 214,734 L 215,735 L 216,735 L 217,736 L 219,736 L 220,737 L 221,737 L 222,738 L 223,738 L 224,739 L 225,739 L 226,740 L 227,740 L 228,741 L 230,741 L 231,742 L 232,742 L 233,743 L 235,743 L 236,744 L 237,744 L 238,745 L 240,745 L 241,746 L 242,746 L 243,747 L 245,747 L 246,748 L 247,748 L 248,749 L 250,749 L 251,750 L 252,750 L 253,751 L 255,751 L 256,752 L 258,752 L 259,753 L 260,753 L 261,754 L 263,754 L 264,755 L 266,755 L 267,756 L 268,756 L 269,757 L 271,757 L 272,758 L 273,758 L 274,759 L 276,759 L 277,760 L 278,760 L 279,761 L 281,761 L 282,762 L 283,762 L 284,763 L 286,763 L 287,764 L 288,764 L 289,765 L 290,765 L 291,766 L 293,766 L 294,767 L 295,767 L 296,768 L 297,768 L 298,769 L 300,769 L 301,770 L 302,770 L 303,771 L 304,771 L 305,772 L 306,772 L 307,773 L 308,773 L 309,774 L 310,774 L 311,775 L 312,775 L 313,776 L 314,776 L 315,777 L 316,777 L 317,778 L 318,778 L 319,779 L 320,779 L 321,780 L 323,780 L 325,782 L 326,782 L 327,783 L 328,783 L 329,784 L 330,784 L 331,785 L 332,785 L 333,786 L 334,786 L 335,787 L 336,787 L 338,789 L 339,789 L 340,790 L 341,790 L 342,791 L 343,791 L 345,793 L 346,793 L 347,794 L 348,794 L 350,796 L 351,796 L 353,798 L 354,798 L 355,799 L 356,799 L 358,801 L 359,801 L 361,803 L 362,803 L 364,805 L 365,805 L 367,807 L 368,807 L 370,809 L 371,809 L 373,811 L 374,811 L 378,815 L 379,815 L 383,819 L 384,819 L 392,827 L 392,828 L 394,830 L 395,830 L 398,833 L 399,833 L 400,834 L 401,834 L 402,835 L 405,835 L 406,836 L 411,836 L 412,835 L 414,835 L 415,834 L 416,834 L 417,833 L 418,833 L 422,829 L 422,828 L 423,827 L 423,825 L 424,824 L 424,816 L 423,815 L 423,813 L 421,811 L 421,810 L 416,805 L 415,805 L 413,803 L 412,803 L 410,801 L 409,801 L 408,800 L 407,800 L 405,798 L 404,798 L 402,796 L 401,796 L 400,795 L 399,795 L 397,793 L 396,793 L 395,792 L 394,792 L 392,790 L 391,790 L 390,789 L 389,789 L 387,787 L 386,787 L 385,786 L 384,786 L 382,784 L 381,784 L 379,782 L 378,782 L 377,781 L 376,781 L 374,779 L 373,779 L 371,777 L 370,777 L 368,775 L 367,775 L 364,772 L 363,772 L 361,770 L 361,769 L 363,767 L 371,767 L 372,768 L 378,768 L 379,769 L 382,769 L 383,770 L 386,770 L 387,771 L 390,771 L 391,772 L 394,772 L 395,773 L 398,773 L 399,774 L 401,774 L 402,775 L 405,775 L 406,776 L 408,776 L 409,777 L 412,777 L 413,778 L 415,778 L 416,779 L 419,779 L 420,780 L 422,780 L 423,781 L 425,781 L 426,782 L 429,782 L 430,783 L 432,783 L 433,784 L 436,784 L 437,785 L 439,785 L 440,786 L 442,786 L 443,787 L 446,787 L 447,788 L 449,788 L 450,789 L 452,789 L 453,790 L 455,790 L 456,791 L 459,791 L 460,792 L 462,792 L 463,793 L 465,793 L 466,794 L 468,794 L 469,795 L 470,795 L 471,796 L 473,796 L 474,797 L 475,797 L 476,798 L 477,798 L 478,799 L 479,799 L 480,800 L 481,800 L 482,801 L 483,801 L 485,803 L 486,803 L 487,804 L 488,804 L 489,805 L 490,805 L 491,806 L 493,806 L 494,807 L 498,807 L 499,808 L 502,808 L 503,807 L 506,807 L 507,806 L 508,806 L 509,805 L 510,805 L 513,802 L 513,801 L 514,800 L 514,798 L 515,797 L 515,788 L 514,787 L 514,786 L 513,785 L 513,784 L 508,779 L 507,779 L 505,777 L 504,777 L 503,776 L 501,776 L 500,775 L 498,775 L 497,774 L 494,774 L 493,773 L 490,773 L 489,772 L 487,772 L 486,771 L 483,771 L 482,770 L 479,770 L 478,769 L 476,769 L 475,768 L 472,768 L 471,767 L 469,767 L 468,766 L 465,766 L 464,765 L 461,765 L 460,764 L 458,764 L 457,763 L 454,763 L 453,762 L 450,762 L 449,761 L 447,761 L 446,760 L 443,760 L 442,759 L 439,759 L 438,758 L 435,758 L 434,757 L 432,757 L 431,756 L 428,756 L 427,755 L 424,755 L 423,754 L 421,754 L 420,753 L 417,753 L 416,752 L 414,752 L 413,751 L 410,751 L 409,750 L 407,750 L 406,749 L 404,749 L 403,748 L 400,748 L 399,747 L 397,747 L 396,746 L 394,746 L 393,745 L 392,745 L 391,744 L 389,744 L 388,743 L 387,743 L 386,742 L 385,742 L 382,739 L 381,739 L 380,738 L 380,737 L 381,736 L 383,736 L 384,735 L 415,735 L 416,736 L 427,736 L 428,737 L 435,737 L 436,738 L 444,738 L 445,739 L 452,739 L 453,740 L 462,740 L 463,739 L 466,739 L 467,738 L 468,738 L 471,735 L 471,734 L 472,733 L 472,731 L 473,730 L 473,724 L 472,723 L 472,721 L 470,719 L 470,718 L 469,717 L 468,717 L 467,716 L 466,716 L 465,715 L 463,715 L 462,714 L 454,714 L 453,713 L 439,713 L 438,712 L 424,712 L 423,711 L 405,711 L 404,710 L 374,710 L 373,709 L 330,709 L 329,708 L 315,708 L 314,707 L 306,707 L 305,706 L 298,706 L 297,705 L 292,705 L 291,704 L 287,704 L 286,703 L 282,703 L 281,702 L 277,702 L 276,701 L 272,701 L 271,700 L 268,700 L 267,699 L 265,699 L 264,698 L 261,698 L 260,697 L 258,697 L 257,696 L 254,696 L 253,695 L 251,695 L 250,694 L 248,694 L 247,693 L 245,693 L 244,692 L 242,692 L 241,691 L 239,691 L 238,690 L 237,690 L 236,689 L 234,689 L 233,688 L 231,688 L 230,687 L 229,687 L 228,686 L 227,686 L 226,685 L 224,685 L 223,684 L 222,684 L 221,683 L 220,683 L 219,682 L 217,682 L 216,681 L 215,681 L 214,680 L 213,680 L 212,679 L 211,679 L 210,678 L 209,678 L 208,677 L 207,677 L 206,676 L 205,676 L 203,674 L 202,674 L 201,673 L 200,673 L 199,672 L 198,672 L 196,670 L 195,670 L 193,668 L 192,668 L 191,667 L 190,667 L 187,664 L 186,664 L 184,662 L 183,662 L 180,659 L 179,659 L 173,653 L 173,652 L 172,651 L 172,649 L 173,648 L 175,648 L 176,649 L 177,649 L 178,650 L 179,650 L 180,651 L 181,651 L 182,652 L 183,652 L 184,653 L 185,653 L 186,654 L 187,654 L 188,655 L 189,655 L 190,656 L 191,656 L 192,657 L 193,657 L 194,658 L 196,658 L 197,659 L 198,659 L 199,660 L 200,660 L 201,661 L 203,661 L 204,662 L 205,662 L 206,663 L 207,663 L 208,664 L 210,664 L 211,665 L 212,665 L 213,666 L 215,666 L 216,667 L 218,667 L 219,668 L 221,668 L 222,669 L 223,669 L 224,670 L 226,670 L 227,671 L 229,671 L 230,672 L 232,672 L 233,673 L 235,673 L 236,674 L 238,674 L 239,675 L 242,675 L 243,676 L 245,676 L 246,677 L 248,677 L 249,678 L 252,678 L 253,679 L 255,679 L 256,680 L 259,680 L 260,681 L 263,681 L 264,682 L 267,682 L 268,683 L 271,683 L 272,684 L 276,684 L 277,685 L 281,685 L 282,686 L 286,686 L 287,687 L 292,687 L 293,688 L 300,688 L 301,689 L 310,689 L 311,690 L 330,690 L 331,691 L 332,691 L 333,690 L 351,690 L 352,689 L 359,689 L 360,688 L 365,688 L 366,687 L 369,687 L 370,686 L 373,686 L 374,685 L 376,685 L 377,684 L 378,684 L 379,683 L 381,683 L 382,682 L 383,682 L 384,681 L 385,681 L 386,680 L 387,680 L 389,678 L 390,678 L 392,676 L 393,676 L 395,674 L 396,674 L 404,666 L 404,665 L 407,662 L 407,661 L 409,659 L 409,658 L 410,657 L 410,656 L 411,655 L 411,654 L 412,653 L 412,651 L 413,650 L 413,648 L 414,647 L 414,644 L 415,643 L 415,637 L 416,636 L 416,615 L 415,614 L 415,610 L 414,609 L 414,606 L 413,605 L 413,603 L 412,602 L 412,600 L 411,599 L 411,598 L 410,597 L 410,596 L 409,595 L 409,593 L 408,592 L 408,591 L 407,590 L 407,589 L 406,588 L 406,587 L 405,586 L 405,585 L 404,584 L 404,583 L 402,581 L 402,580 L 401,579 L 401,578 L 398,575 L 398,574 L 394,570 L 394,569 L 382,557 L 381,557 L 377,553 L 376,553 L 374,551 L 373,551 L 371,549 L 370,549 L 368,547 L 367,547 L 366,546 L 365,546 L 364,545 L 363,545 L 362,544 L 361,544 L 360,543 L 359,543 L 358,542 L 357,542 L 356,541 L 354,541 L 353,540 L 352,540 L 351,539 L 349,539 L 348,538 L 346,538 L 345,537 L 342,537 L 341,536 L 339,536 L 338,535 L 334,535 L 333,534 L 329,534 L 328,533 L 324,533 L 323,532 L 316,532 L 315,531 L 307,531 L 306,530 L 258,530 L 257,531 L 245,531 L 244,532 L 235,532 L 234,533 L 226,533 L 225,534 L 219,534 L 218,533 L 216,533 L 215,532 L 218,529 L 220,529 L 221,528 L 222,528 L 223,527 L 224,527 L 225,526 L 227,526 L 228,525 L 229,525 L 230,524 L 233,524 L 234,523 L 236,523 L 237,522 L 239,522 L 240,521 L 242,521 L 243,520 L 246,520 L 247,519 L 250,519 L 251,518 L 254,518 L 255,517 L 259,517 L 260,516 L 265,516 L 266,515 L 271,515 L 272,514 L 279,514 L 280,513 L 320,513 L 321,514 L 328,514 L 329,515 L 334,515 L 335,516 L 339,516 L 340,517 L 343,517 L 344,518 L 346,518 L 347,519 L 350,519 L 351,520 L 353,520 L 354,521 L 355,521 L 356,522 L 358,522 L 359,523 L 361,523 L 362,524 L 363,524 L 364,525 L 365,525 L 366,526 L 367,526 L 368,527 L 369,527 L 370,528 L 371,528 L 372,529 L 373,529 L 374,530 L 375,530 L 376,531 L 377,531 L 379,533 L 380,533 L 381,534 L 382,534 L 384,536 L 385,536 L 388,539 L 389,539 L 392,542 L 393,542 L 398,547 L 399,547 L 408,556 L 408,557 L 413,562 L 413,563 L 417,567 L 417,568 L 419,570 L 419,571 L 420,572 L 420,573 L 422,575 L 422,576 L 423,577 L 423,578 L 424,579 L 424,580 L 425,581 L 425,582 L 426,583 L 426,584 L 427,585 L 427,586 L 428,587 L 428,589 L 429,590 L 429,591 L 430,592 L 430,594 L 431,595 L 431,597 L 432,598 L 432,601 L 433,602 L 433,605 L 434,606 L 434,610 L 435,611 L 435,616 L 436,617 L 436,633 L 435,634 L 435,639 L 434,640 L 434,643 L 433,644 L 433,647 L 432,648 L 432,649 L 431,650 L 431,652 L 430,653 L 430,655 L 429,656 L 429,657 L 428,658 L 428,659 L 427,660 L 427,662 L 426,663 L 426,664 L 427,663 L 438,663 L 439,662 L 446,662 L 447,661 L 451,661 L 452,660 L 456,660 L 457,659 L 460,659 L 461,658 L 463,658 L 464,657 L 466,657 L 467,656 L 469,656 L 470,655 L 471,655 L 472,654 L 474,654 L 475,653 L 476,653 L 477,652 L 478,652 L 479,651 L 480,651 L 481,650 L 482,650 L 483,649 L 484,649 L 487,646 L 487,641 L 486,640 L 486,639 L 485,638 L 485,636 L 484,635 L 484,634 L 483,633 L 483,632 L 482,631 L 482,630 L 481,629 L 481,627 L 480,626 L 480,624 L 479,623 L 479,622 L 478,621 L 478,619 L 477,618 L 477,615 L 476,614 L 476,610 L 475,609 L 475,588 L 476,587 L 476,582 L 477,581 L 477,577 L 478,576 L 478,573 L 479,572 L 479,570 L 480,569 L 480,567 L 481,566 L 481,564 L 482,563 L 482,561 L 483,560 L 483,558 L 484,557 L 484,556 L 485,555 L 485,553 L 486,552 L 486,551 L 487,550 L 487,549 L 488,548 L 488,546 L 489,545 L 489,544 L 490,543 L 490,542 L 491,541 L 491,540 L 492,539 L 492,538 L 493,537 L 493,536 L 494,535 L 494,534 L 495,533 L 495,532 L 496,531 L 496,530 L 497,529 L 497,528 L 498,527 L 498,526 L 499,525 L 499,524 L 500,523 L 500,522 L 501,521 L 501,520 L 502,519 L 502,518 L 504,516 L 504,515 L 505,514 L 505,513 L 506,512 L 506,511 L 508,509 L 508,508 L 509,507 L 509,506 L 511,504 L 511,503 L 512,502 L 512,501 L 514,499 L 514,498 L 516,496 L 516,495 L 518,493 L 518,492 L 520,490 L 520,489 L 522,487 L 522,486 L 525,483 L 525,482 L 528,479 L 528,478 L 531,475 L 531,474 L 536,469 L 537,469 L 538,468 L 540,470 L 540,474 L 539,475 L 539,476 L 538,477 L 538,479 L 537,480 L 537,482 L 536,483 L 536,484 L 535,485 L 535,486 L 534,487 L 534,489 L 533,490 L 533,491 L 532,492 L 532,494 L 531,495 L 531,496 L 530,497 L 530,498 L 529,499 L 529,501 L 528,502 L 528,503 L 527,504 L 527,505 L 526,506 L 526,508 L 525,509 L 525,510 L 524,511 L 524,512 L 523,513 L 523,515 L 522,516 L 522,517 L 521,518 L 521,519 L 520,520 L 520,522 L 519,523 L 519,524 L 518,525 L 518,527 L 517,528 L 517,529 L 516,530 L 516,531 L 515,532 L 515,534 L 514,535 L 514,536 L 513,537 L 513,539 L 512,540 L 512,541 L 511,542 L 511,544 L 510,545 L 510,546 L 509,547 L 509,549 L 508,550 L 508,551 L 507,552 L 507,554 L 506,555 L 506,557 L 505,558 L 505,560 L 504,561 L 504,563 L 503,564 L 503,566 L 502,567 L 502,569 L 501,570 L 501,572 L 500,573 L 500,576 L 499,577 L 499,579 L 498,580 L 498,583 L 497,584 L 497,587 L 496,588 L 496,592 L 495,593 L 495,597 L 494,598 L 494,610 L 495,611 L 495,613 L 496,614 L 496,615 L 497,616 L 497,617 L 498,618 L 498,619 L 499,620 L 499,621 L 501,623 L 501,624 L 502,625 L 502,626 L 504,628 L 504,629 L 506,631 L 506,632 L 508,634 L 508,635 L 509,636 L 509,637 L 511,639 L 511,640 L 512,641 L 512,642 L 514,644 L 514,645 L 515,646 L 515,647 L 517,649 L 517,650 L 519,652 L 519,653 L 520,654 L 520,655 L 522,657 L 522,658 L 524,660 L 524,661 L 525,662 L 525,663 L 527,665 L 527,666 L 529,668 L 529,669 L 531,671 L 531,672 L 533,674 L 533,675 L 535,677 L 535,678 L 537,680 L 537,681 L 539,683 L 539,684 L 540,685 L 540,686 L 542,688 L 542,689 L 544,691 L 544,692 L 545,693 L 545,694 L 547,696 L 547,697 L 549,699 L 549,700 L 552,703 L 552,704 L 554,706 L 554,707 L 557,710 L 557,711 L 559,713 L 559,714 L 562,717 L 562,718 L 566,722 L 566,723 L 570,727 L 570,728 L 575,733 L 575,734 L 583,742 L 583,743 L 595,755 L 596,755 L 599,758 L 600,758 L 602,760 L 603,760 L 605,762 L 606,762 L 607,763 L 608,763 L 610,765 L 611,765 L 612,766 L 613,766 L 614,767 L 615,767 L 616,768 L 617,768 L 618,769 L 619,769 L 621,771 L 622,771 L 623,772 L 624,772 L 625,773 L 626,773 L 627,774 L 628,774 L 629,775 L 630,775 L 631,776 L 632,776 L 634,778 L 635,778 L 636,779 L 637,779 L 638,780 L 639,780 L 641,782 L 642,782 L 643,783 L 644,783 L 646,785 L 647,785 L 648,786 L 649,786 L 651,788 L 652,788 L 654,790 L 655,790 L 658,793 L 659,793 L 663,797 L 664,797 L 678,811 L 678,812 L 681,815 L 681,816 L 686,821 L 686,822 L 689,825 L 690,825 L 693,828 L 694,828 L 695,829 L 698,829 L 699,830 L 707,830 L 708,829 L 710,829 L 711,828 L 712,828 L 716,824 L 716,823 L 717,822 L 717,821 L 718,820 L 718,818 L 719,817 L 719,811 L 718,810 L 718,808 L 717,807 L 717,806 L 716,805 L 716,804 L 711,799 L 710,799 L 707,796 L 706,796 L 705,795 L 704,795 L 702,793 L 701,793 L 700,792 L 699,792 L 697,790 L 696,790 L 695,789 L 694,789 L 692,787 L 691,787 L 689,785 L 688,785 L 677,774 L 677,773 L 675,771 L 676,770 L 681,770 L 682,771 L 684,771 L 685,772 L 687,772 L 688,773 L 691,773 L 692,774 L 694,774 L 695,775 L 698,775 L 699,776 L 701,776 L 702,777 L 706,777 L 707,778 L 710,778 L 711,779 L 714,779 L 715,780 L 718,780 L 719,781 L 722,781 L 723,782 L 726,782 L 727,783 L 731,783 L 732,784 L 735,784 L 736,785 L 738,785 L 739,786 L 741,786 L 742,787 L 743,787 L 744,788 L 746,788 L 747,789 L 748,789 L 750,791 L 751,791 L 752,792 L 753,792 L 755,794 L 756,794 L 758,796 L 760,796 L 761,797 L 765,797 L 766,798 L 767,798 L 768,797 L 771,797 L 772,796 L 773,796 L 774,795 L 775,795 L 778,792 L 778,791 L 779,790 L 779,789 L 780,788 L 780,784 L 781,783 L 781,780 L 780,779 L 780,777 L 778,775 L 778,774 L 773,769 L 772,769 L 771,768 L 770,768 L 769,767 L 767,767 L 766,766 L 762,766 L 761,765 L 756,765 L 755,764 L 749,764 L 748,763 L 744,763 L 743,762 L 738,762 L 737,761 L 733,761 L 732,760 L 728,760 L 727,759 L 723,759 L 722,758 L 718,758 L 717,757 L 714,757 L 713,756 L 710,756 L 709,755 L 706,755 L 705,754 L 702,754 L 701,753 L 698,753 L 697,752 L 695,752 L 694,751 L 692,751 L 691,750 L 689,750 L 688,749 L 686,749 L 685,748 L 683,748 L 682,747 L 680,747 L 679,746 L 678,746 L 677,745 L 677,743 L 679,741 L 680,741 L 681,740 L 707,740 L 708,741 L 716,741 L 717,742 L 724,742 L 725,743 L 738,743 L 739,742 L 741,742 L 743,740 L 744,740 L 746,738 L 746,737 L 747,736 L 747,728 L 746,727 L 746,726 L 740,720 L 739,720 L 738,719 L 736,719 L 735,718 L 732,718 L 731,717 L 665,717 L 664,716 L 661,716 L 660,715 L 658,715 L 657,714 L 656,714 L 655,713 L 654,713 L 650,709 L 649,709 L 648,708 L 648,707 L 641,700 L 641,699 L 638,696 L 638,695 L 635,692 L 635,691 L 633,689 L 633,688 L 631,686 L 631,685 L 629,683 L 629,682 L 627,680 L 627,679 L 626,678 L 626,677 L 624,675 L 624,674 L 622,672 L 622,671 L 621,670 L 621,669 L 619,667 L 619,666 L 618,665 L 618,664 L 616,662 L 616,661 L 615,660 L 615,659 L 613,657 L 613,656 L 612,655 L 612,654 L 610,652 L 610,651 L 609,650 L 609,649 L 607,647 L 607,646 L 606,645 L 606,644 L 604,642 L 604,641 L 602,639 L 602,638 L 600,636 L 600,635 L 599,634 L 599,633 L 597,631 L 597,630 L 595,628 L 595,627 L 593,625 L 593,624 L 591,622 L 591,621 L 590,620 L 590,619 L 588,617 L 588,616 L 587,615 L 587,614 L 585,612 L 585,611 L 584,610 L 584,609 L 583,608 L 583,607 L 582,606 L 582,603 L 581,602 L 581,600 L 582,599 L 582,597 L 583,596 L 583,595 L 584,594 L 584,593 L 586,591 L 586,590 L 587,589 L 587,588 L 588,587 L 588,586 L 590,584 L 590,583 L 591,582 L 591,581 L 593,579 L 593,578 L 594,577 L 594,576 L 596,574 L 596,573 L 598,571 L 598,570 L 600,568 L 600,567 L 602,565 L 602,564 L 605,561 L 605,560 L 607,558 L 607,557 L 610,554 L 610,553 L 612,551 L 612,550 L 616,546 L 616,545 L 619,542 L 619,541 L 622,538 L 622,537 L 626,533 L 626,532 L 631,527 L 631,526 L 645,512 L 647,512 L 649,514 L 649,517 L 648,518 L 648,520 L 647,521 L 647,523 L 646,524 L 646,525 L 645,526 L 645,527 L 644,528 L 644,530 L 643,531 L 643,532 L 642,533 L 642,534 L 641,535 L 641,536 L 640,537 L 640,538 L 639,539 L 639,540 L 637,542 L 637,543 L 636,544 L 636,545 L 635,546 L 635,547 L 634,548 L 634,549 L 632,551 L 632,552 L 630,554 L 630,555 L 629,556 L 629,557 L 627,559 L 627,560 L 625,562 L 625,563 L 622,566 L 622,567 L 621,568 L 621,569 L 619,571 L 619,572 L 617,574 L 617,575 L 614,578 L 614,579 L 613,580 L 613,581 L 667,635 L 668,635 L 675,642 L 676,642 L 679,645 L 680,645 L 683,648 L 684,648 L 685,649 L 686,649 L 688,651 L 689,651 L 690,652 L 691,652 L 693,654 L 694,654 L 695,655 L 696,655 L 697,656 L 698,656 L 700,658 L 701,658 L 702,659 L 703,659 L 704,660 L 705,660 L 707,662 L 708,662 L 709,663 L 710,663 L 711,664 L 712,664 L 714,666 L 715,666 L 716,667 L 717,667 L 718,668 L 719,668 L 721,670 L 722,670 L 723,671 L 724,671 L 726,673 L 727,673 L 729,675 L 730,675 L 732,677 L 733,677 L 735,679 L 736,679 L 738,681 L 739,681 L 741,683 L 742,683 L 745,686 L 746,686 L 748,688 L 749,688 L 752,691 L 753,691 L 755,693 L 756,693 L 759,696 L 760,696 L 763,699 L 764,699 L 767,702 L 768,702 L 771,705 L 772,705 L 773,706 L 774,706 L 775,707 L 778,707 L 779,708 L 783,708 L 784,707 L 786,707 L 787,706 L 788,706 L 793,701 L 793,699 L 794,698 L 794,691 L 793,690 L 793,689 L 792,688 L 792,687 L 787,682 L 786,682 L 784,680 L 783,680 L 782,679 L 781,679 L 780,678 L 779,678 L 778,677 L 777,677 L 776,676 L 775,676 L 774,675 L 772,675 L 771,674 L 770,674 L 769,673 L 768,673 L 767,672 L 766,672 L 765,671 L 764,671 L 762,669 L 761,669 L 759,667 L 758,667 L 756,665 L 755,665 L 750,660 L 750,659 L 751,658 L 761,658 L 762,659 L 767,659 L 768,660 L 773,660 L 774,661 L 779,661 L 780,662 L 785,662 L 786,663 L 791,663 L 792,664 L 797,664 L 798,665 L 803,665 L 804,666 L 810,666 L 811,667 L 816,667 L 817,668 L 822,668 L 823,669 L 826,669 L 827,670 L 829,670 L 830,671 L 832,671 L 833,672 L 834,672 L 835,673 L 836,673 L 837,674 L 838,674 L 840,676 L 842,676 L 843,677 L 844,677 L 845,678 L 847,678 L 848,679 L 856,679 L 857,678 L 858,678 L 859,677 L 860,677 L 861,676 L 862,676 L 866,672 L 866,671 L 867,670 L 867,667 L 868,666 L 868,661 L 867,660 L 867,657 L 866,656 L 866,655 L 862,651 L 861,651 L 860,650 L 859,650 L 858,649 L 856,649 L 855,648 L 853,648 L 852,647 L 846,647 L 845,646 L 835,646 L 834,645 L 826,645 L 825,644 L 817,644 L 816,643 L 809,643 L 808,642 L 802,642 L 801,641 L 796,641 L 795,640 L 790,640 L 789,639 L 784,639 L 783,638 L 779,638 L 778,637 L 774,637 L 773,636 L 770,636 L 769,635 L 767,635 L 765,633 L 765,631 L 767,629 L 770,629 L 771,628 L 775,628 L 776,627 L 784,627 L 785,626 L 797,626 L 798,625 L 820,625 L 821,624 L 824,624 L 825,623 L 826,623 L 827,622 L 828,622 L 830,620 L 830,619 L 831,618 L 831,617 L 832,616 L 832,610 L 831,609 L 831,608 L 830,607 L 830,606 L 828,604 L 827,604 L 825,602 L 824,602 L 823,601 L 809,601 L 808,602 L 804,602 L 803,603 L 799,603 L 798,604 L 794,604 L 793,605 L 789,605 L 788,606 L 784,606 L 783,607 L 778,607 L 777,608 L 771,608 L 770,609 L 761,609 L 760,610 L 751,610 L 750,609 L 746,609 L 745,608 L 743,608 L 742,607 L 740,607 L 739,606 L 738,606 L 736,604 L 735,604 L 729,598 L 729,597 L 726,594 L 726,593 L 724,591 L 724,590 L 722,588 L 722,587 L 720,585 L 720,584 L 718,582 L 718,581 L 716,579 L 716,578 L 714,576 L 714,575 L 712,573 L 712,572 L 711,571 L 711,570 L 709,568 L 709,567 L 708,566 L 708,565 L 706,563 L 706,562 L 705,561 L 705,560 L 703,558 L 703,557 L 701,555 L 701,554 L 700,553 L 700,552 L 698,550 L 698,549 L 696,547 L 696,546 L 695,545 L 695,544 L 692,541 L 692,540 L 690,538 L 690,537 L 689,536 L 689,535 L 687,533 L 687,532 L 685,530 L 685,529 L 684,528 L 684,527 L 683,526 L 683,525 L 682,524 L 682,516 L 683,515 L 683,514 L 684,513 L 684,512 L 686,510 L 686,509 L 689,506 L 689,505 L 692,502 L 692,501 L 694,499 L 694,498 L 695,497 L 695,496 L 697,494 L 697,493 L 698,492 L 698,491 L 699,490 L 699,489 L 700,488 L 700,487 L 701,486 L 701,484 L 702,483 L 702,482 L 703,481 L 703,480 L 704,479 L 704,478 L 705,477 L 705,476 L 706,475 L 706,474 L 707,473 L 707,472 L 709,470 L 709,469 L 710,468 L 710,467 L 712,465 L 712,464 L 713,463 L 713,462 L 716,459 L 716,458 L 718,456 L 718,455 L 721,452 L 721,451 L 726,446 L 726,445 L 741,430 L 742,430 L 749,423 L 750,423 L 759,414 L 760,414 L 789,385 L 789,384 L 800,373 L 800,372 L 806,366 L 806,365 L 813,358 L 813,357 L 819,351 L 819,350 L 824,345 L 824,344 L 829,339 L 829,338 L 834,333 L 834,332 L 838,328 L 838,327 L 843,322 L 843,321 L 848,316 L 848,315 L 852,311 L 850,311 L 849,312 L 846,312 L 845,313 L 844,313 L 843,314 L 842,314 L 841,315 L 839,315 L 838,316 L 837,316 L 836,317 L 835,317 L 834,318 L 833,318 L 832,319 L 831,319 L 830,320 L 829,320 L 828,321 L 826,321 L 825,322 L 824,322 L 823,323 L 822,323 L 821,324 L 820,324 L 819,325 L 818,325 L 817,326 L 816,326 L 815,327 L 814,327 L 813,328 L 811,328 L 810,329 L 809,329 L 808,330 L 807,330 L 806,331 L 805,331 L 804,332 L 803,332 L 802,333 L 801,333 L 800,334 L 798,334 L 797,335 L 796,335 L 795,336 L 794,336 L 793,337 L 792,337 L 791,338 L 790,338 L 789,339 L 788,339 L 787,340 L 786,340 L 785,341 L 784,341 L 783,342 L 781,342 L 780,343 L 779,343 L 778,344 L 777,344 L 776,345 L 775,345 L 774,346 L 773,346 L 772,347 L 771,347 L 770,348 L 768,348 L 767,349 L 766,349 L 765,350 L 764,350 L 763,351 L 762,351 L 761,352 L 760,352 L 759,353 L 758,353 L 757,354 L 755,354 L 754,355 L 753,355 L 752,356 L 751,356 L 750,357 L 749,357 L 748,358 L 747,358 L 746,359 L 744,359 L 743,360 L 742,360 L 741,361 L 740,361 L 739,362 L 738,362 L 737,363 L 736,363 L 735,364 L 733,364 L 732,365 L 731,365 L 730,366 L 729,366 L 728,367 L 727,367 L 726,368 L 724,368 L 723,369 L 722,369 L 721,370 L 720,370 L 719,371 L 717,371 L 716,372 L 715,372 L 714,373 L 712,373 L 711,374 L 710,374 L 709,375 L 707,375 L 706,376 L 704,376 L 703,377 L 702,377 L 701,378 L 699,378 L 698,379 L 695,379 L 694,380 L 691,380 L 690,381 L 686,381 L 684,379 L 684,377 L 690,371 L 691,371 L 693,369 L 694,369 L 696,367 L 697,367 L 699,365 L 700,365 L 701,364 L 702,364 L 704,362 L 705,362 L 706,361 L 707,361 L 708,360 L 709,360 L 710,359 L 711,359 L 713,357 L 714,357 L 715,356 L 716,356 L 717,355 L 718,355 L 719,354 L 720,354 L 721,353 L 722,353 L 723,352 L 724,352 L 725,351 L 726,351 L 727,350 L 728,350 L 729,349 L 730,349 L 731,348 L 732,348 L 733,347 L 734,347 L 736,345 L 737,345 L 738,344 L 739,344 L 740,343 L 741,343 L 742,342 L 743,342 L 744,341 L 745,341 L 746,340 L 747,340 L 748,339 L 749,339 L 750,338 L 751,338 L 752,337 L 753,337 L 754,336 L 755,336 L 756,335 L 757,335 L 758,334 L 759,334 L 760,333 L 761,333 L 762,332 L 763,332 L 764,331 L 765,331 L 767,329 L 768,329 L 769,328 L 770,328 L 771,327 L 772,327 L 773,326 L 774,326 L 775,325 L 776,325 L 777,324 L 778,324 L 779,323 L 781,323 L 783,321 L 785,321 L 786,320 L 787,320 L 788,319 L 789,319 L 790,318 L 791,318 L 792,317 L 793,317 L 794,316 L 795,316 L 796,315 L 797,315 L 798,314 L 799,314 L 800,313 L 801,313 L 802,312 L 803,312 L 804,311 L 805,311 L 806,310 L 807,310 L 808,309 L 809,309 L 810,308 L 811,308 L 812,307 L 813,307 L 814,306 L 815,306 L 816,305 L 817,305 L 818,304 L 819,304 L 820,303 L 821,303 L 822,302 L 823,302 L 824,301 L 826,301 L 827,300 L 828,300 L 829,299 L 830,299 L 831,298 L 832,298 L 833,297 L 834,297 L 835,296 L 836,296 L 837,295 L 838,295 L 839,294 L 840,294 L 841,293 L 842,293 L 843,292 L 844,292 L 845,291 L 846,291 L 847,290 L 848,290 L 849,289 L 850,289 L 851,288 L 852,288 L 853,287 L 854,287 L 855,286 L 856,286 L 857,285 L 858,285 L 859,284 L 860,284 L 861,283 L 863,283 L 864,282 L 865,282 L 869,278 L 869,277 L 870,276 L 870,258 L 869,257 L 869,254 L 868,253 L 868,252 L 867,251 L 867,249 L 866,248 L 866,247 L 864,245 L 864,244 L 860,240 L 860,239 L 859,238 L 858,238 L 854,234 L 853,234 L 851,232 L 850,232 L 849,231 L 848,231 L 847,230 L 846,230 L 845,229 L 844,229 L 843,228 L 842,228 L 841,227 L 840,227 L 839,226 L 838,226 L 837,225 L 835,225 L 834,224 L 832,224 L 831,223 L 830,223 L 829,222 L 827,222 L 826,221 L 823,221 L 822,220 L 820,220 L 819,219 L 817,219 L 816,218 L 813,218 L 812,217 L 809,217 L 808,216 L 806,216 L 805,215 L 802,215 L 801,214 L 797,214 L 796,213 L 793,213 L 792,212 L 789,212 L 788,211 L 785,211 L 784,210 L 780,210 L 779,209 L 776,209 L 775,208 L 772,208 L 771,207 L 767,207 L 766,206 L 762,206 L 761,205 L 757,205 L 756,204 L 751,204 L 750,203 L 746,203 L 745,202 L 742,202 L 734,194 L 734,193 L 723,182 L 722,182 L 719,179 L 718,179 L 716,177 L 715,177 L 714,176 L 713,176 L 712,175 L 711,175 L 710,174 L 709,174 L 708,173 L 707,173 L 706,172 L 704,172 L 703,171 L 702,171 L 701,170 L 698,170 L 697,169 L 694,169 L 693,168 L 687,168 L 686,167 Z" fill="white" /></svg>